<svg width="1000" height="1000">
<rect x="0" y="0" width="1000" height="1000" fill="white" stroke="white"/><line x1="50" y1="950" x2="79" y2="922" stroke-width="2" stroke="black" />
<line x1="79" y1="922" x2="50" y2="926" stroke-width="2" stroke="black" />
<line x1="50" y1="926" x2="50" y2="950" stroke-width="2" stroke="black" />
<line x1="79" y1="922" x2="50" y2="950" stroke-width="2" stroke="black" />
<line x1="50" y1="950" x2="251" y2="919" stroke-width="2" stroke="black" />
<line x1="251" y1="919" x2="79" y2="922" stroke-width="2" stroke="black" />
<line x1="306" y1="950" x2="306" y2="926" stroke-width="2" stroke="black" />
<line x1="306" y1="926" x2="251" y2="919" stroke-width="2" stroke="black" />
<line x1="251" y1="919" x2="306" y2="950" stroke-width="2" stroke="black" />
<line x1="251" y1="919" x2="227" y2="904" stroke-width="2" stroke="black" />
<line x1="227" y1="904" x2="79" y2="922" stroke-width="2" stroke="black" />
<line x1="79" y1="922" x2="251" y2="919" stroke-width="2" stroke="black" />
<line x1="306" y1="950" x2="251" y2="919" stroke-width="2" stroke="black" />
<line x1="251" y1="919" x2="50" y2="950" stroke-width="2" stroke="black" />
<line x1="50" y1="950" x2="306" y2="950" stroke-width="2" stroke="black" />
<line x1="79" y1="922" x2="227" y2="904" stroke-width="2" stroke="black" />
<line x1="227" y1="904" x2="118" y2="896" stroke-width="2" stroke="black" />
<line x1="118" y1="896" x2="79" y2="922" stroke-width="2" stroke="black" />
<line x1="118" y1="896" x2="217" y2="871" stroke-width="2" stroke="black" />
<line x1="217" y1="871" x2="166" y2="815" stroke-width="2" stroke="black" />
<line x1="166" y1="815" x2="118" y2="896" stroke-width="2" stroke="black" />
<line x1="217" y1="871" x2="118" y2="896" stroke-width="2" stroke="black" />
<line x1="118" y1="896" x2="227" y2="904" stroke-width="2" stroke="black" />
<line x1="227" y1="904" x2="217" y2="871" stroke-width="2" stroke="black" />
<line x1="166" y1="815" x2="217" y2="871" stroke-width="2" stroke="black" />
<line x1="217" y1="871" x2="228" y2="822" stroke-width="2" stroke="black" />
<line x1="228" y1="822" x2="166" y2="815" stroke-width="2" stroke="black" />
<line x1="483" y1="73" x2="166" y2="815" stroke-width="2" stroke="black" />
<line x1="166" y1="815" x2="311" y2="617" stroke-width="2" stroke="black" />
<line x1="311" y1="617" x2="483" y2="73" stroke-width="2" stroke="black" />
<line x1="291" y1="669" x2="311" y2="617" stroke-width="2" stroke="black" />
<line x1="311" y1="617" x2="166" y2="815" stroke-width="2" stroke="black" />
<line x1="166" y1="815" x2="291" y2="669" stroke-width="2" stroke="black" />
<line x1="311" y1="617" x2="291" y2="669" stroke-width="2" stroke="black" />
<line x1="291" y1="669" x2="630" y2="669" stroke-width="2" stroke="black" />
<line x1="630" y1="669" x2="311" y2="617" stroke-width="2" stroke="black" />
<line x1="291" y1="669" x2="166" y2="815" stroke-width="2" stroke="black" />
<line x1="166" y1="815" x2="228" y2="822" stroke-width="2" stroke="black" />
<line x1="228" y1="822" x2="291" y2="669" stroke-width="2" stroke="black" />
<line x1="483" y1="73" x2="311" y2="617" stroke-width="2" stroke="black" />
<line x1="311" y1="617" x2="460" y2="258" stroke-width="2" stroke="black" />
<line x1="460" y1="258" x2="483" y2="73" stroke-width="2" stroke="black" />
<line x1="618" y1="950" x2="682" y2="919" stroke-width="2" stroke="black" />
<line x1="682" y1="919" x2="618" y2="926" stroke-width="2" stroke="black" />
<line x1="618" y1="926" x2="618" y2="950" stroke-width="2" stroke="black" />
<line x1="682" y1="919" x2="618" y2="950" stroke-width="2" stroke="black" />
<line x1="618" y1="950" x2="950" y2="950" stroke-width="2" stroke="black" />
<line x1="950" y1="950" x2="682" y2="919" stroke-width="2" stroke="black" />
<line x1="950" y1="950" x2="950" y2="926" stroke-width="2" stroke="black" />
<line x1="950" y1="926" x2="911" y2="920" stroke-width="2" stroke="black" />
<line x1="911" y1="920" x2="950" y2="950" stroke-width="2" stroke="black" />
<line x1="884" y1="904" x2="682" y2="919" stroke-width="2" stroke="black" />
<line x1="682" y1="919" x2="911" y2="920" stroke-width="2" stroke="black" />
<line x1="911" y1="920" x2="884" y2="904" stroke-width="2" stroke="black" />
<line x1="884" y1="904" x2="700" y2="906" stroke-width="2" stroke="black" />
<line x1="700" y1="906" x2="682" y2="919" stroke-width="2" stroke="black" />
<line x1="682" y1="919" x2="884" y2="904" stroke-width="2" stroke="black" />
<line x1="911" y1="920" x2="682" y2="919" stroke-width="2" stroke="black" />
<line x1="682" y1="919" x2="950" y2="950" stroke-width="2" stroke="black" />
<line x1="950" y1="950" x2="911" y2="920" stroke-width="2" stroke="black" />
<line x1="507" y1="73" x2="611" y2="617" stroke-width="2" stroke="black" />
<line x1="611" y1="617" x2="861" y2="871" stroke-width="2" stroke="black" />
<line x1="861" y1="871" x2="507" y2="73" stroke-width="2" stroke="black" />
<line x1="311" y1="617" x2="630" y2="669" stroke-width="2" stroke="black" />
<line x1="630" y1="669" x2="611" y2="617" stroke-width="2" stroke="black" />
<line x1="611" y1="617" x2="311" y2="617" stroke-width="2" stroke="black" />
<line x1="483" y1="73" x2="460" y2="258" stroke-width="2" stroke="black" />
<line x1="460" y1="258" x2="507" y2="73" stroke-width="2" stroke="black" />
<line x1="507" y1="73" x2="483" y2="73" stroke-width="2" stroke="black" />
<line x1="611" y1="617" x2="630" y2="669" stroke-width="2" stroke="black" />
<line x1="630" y1="669" x2="861" y2="871" stroke-width="2" stroke="black" />
<line x1="861" y1="871" x2="611" y2="617" stroke-width="2" stroke="black" />
<line x1="460" y1="258" x2="611" y2="617" stroke-width="2" stroke="black" />
<line x1="611" y1="617" x2="507" y2="73" stroke-width="2" stroke="black" />
<line x1="507" y1="73" x2="460" y2="258" stroke-width="2" stroke="black" />
<line x1="700" y1="906" x2="861" y2="871" stroke-width="2" stroke="black" />
<line x1="861" y1="871" x2="708" y2="878" stroke-width="2" stroke="black" />
<line x1="708" y1="878" x2="700" y2="906" stroke-width="2" stroke="black" />
<line x1="861" y1="871" x2="700" y2="906" stroke-width="2" stroke="black" />
<line x1="700" y1="906" x2="884" y2="904" stroke-width="2" stroke="black" />
<line x1="884" y1="904" x2="861" y2="871" stroke-width="2" stroke="black" />
<line x1="681" y1="789" x2="861" y2="871" stroke-width="2" stroke="black" />
<line x1="861" y1="871" x2="630" y2="669" stroke-width="2" stroke="black" />
<line x1="630" y1="669" x2="681" y2="789" stroke-width="2" stroke="black" />
<line x1="861" y1="871" x2="681" y2="789" stroke-width="2" stroke="black" />
<line x1="681" y1="789" x2="708" y2="878" stroke-width="2" stroke="black" />
<line x1="708" y1="878" x2="861" y2="871" stroke-width="2" stroke="black" />
</svg>
