<svg width="1000" height="1000">
<rect x="0" y="0" width="1000" height="1000" fill="white" stroke="white"/><line x1="50" y1="950" x2="79" y2="922" stroke-width="2" stroke="black" />
<line x1="79" y1="922" x2="50" y2="926" stroke-width="2" stroke="black" />
<line x1="50" y1="926" x2="50" y2="950" stroke-width="2" stroke="black" />
<line x1="177" y1="901" x2="114" y2="950" stroke-width="2" stroke="black" />
<line x1="114" y1="950" x2="178" y2="950" stroke-width="2" stroke="black" />
<line x1="178" y1="950" x2="177" y2="901" stroke-width="2" stroke="black" />
<line x1="495" y1="204" x2="443" y2="166" stroke-width="2" stroke="black" />
<line x1="443" y1="166" x2="423" y2="212" stroke-width="2" stroke="black" />
<line x1="423" y1="212" x2="495" y2="204" stroke-width="2" stroke="black" />
<line x1="460" y1="669" x2="461" y2="617" stroke-width="2" stroke="black" />
<line x1="461" y1="617" x2="386" y2="617" stroke-width="2" stroke="black" />
<line x1="386" y1="617" x2="460" y2="669" stroke-width="2" stroke="black" />
<line x1="306" y1="950" x2="306" y2="926" stroke-width="2" stroke="black" />
<line x1="306" y1="926" x2="251" y2="919" stroke-width="2" stroke="black" />
<line x1="251" y1="919" x2="306" y2="950" stroke-width="2" stroke="black" />
<line x1="682" y1="919" x2="660" y2="950" stroke-width="2" stroke="black" />
<line x1="660" y1="950" x2="701" y2="950" stroke-width="2" stroke="black" />
<line x1="701" y1="950" x2="682" y2="919" stroke-width="2" stroke="black" />
<line x1="403" y1="259" x2="441" y2="303" stroke-width="2" stroke="black" />
<line x1="441" y1="303" x2="460" y2="258" stroke-width="2" stroke="black" />
<line x1="460" y1="258" x2="403" y2="259" stroke-width="2" stroke="black" />
<line x1="227" y1="904" x2="217" y2="871" stroke-width="2" stroke="black" />
<line x1="217" y1="871" x2="177" y2="901" stroke-width="2" stroke="black" />
<line x1="177" y1="901" x2="227" y2="904" stroke-width="2" stroke="black" />
<line x1="178" y1="950" x2="251" y2="919" stroke-width="2" stroke="black" />
<line x1="251" y1="919" x2="227" y2="904" stroke-width="2" stroke="black" />
<line x1="227" y1="904" x2="178" y2="950" stroke-width="2" stroke="black" />
<line x1="306" y1="950" x2="251" y2="919" stroke-width="2" stroke="black" />
<line x1="251" y1="919" x2="178" y2="950" stroke-width="2" stroke="black" />
<line x1="178" y1="950" x2="306" y2="950" stroke-width="2" stroke="black" />
<line x1="311" y1="617" x2="291" y2="669" stroke-width="2" stroke="black" />
<line x1="291" y1="669" x2="376" y2="669" stroke-width="2" stroke="black" />
<line x1="376" y1="669" x2="311" y2="617" stroke-width="2" stroke="black" />
<line x1="118" y1="896" x2="79" y2="922" stroke-width="2" stroke="black" />
<line x1="79" y1="922" x2="114" y2="950" stroke-width="2" stroke="black" />
<line x1="114" y1="950" x2="118" y2="896" stroke-width="2" stroke="black" />
<line x1="177" y1="901" x2="142" y2="856" stroke-width="2" stroke="black" />
<line x1="142" y1="856" x2="118" y2="896" stroke-width="2" stroke="black" />
<line x1="118" y1="896" x2="177" y2="901" stroke-width="2" stroke="black" />
<line x1="178" y1="950" x2="227" y2="904" stroke-width="2" stroke="black" />
<line x1="227" y1="904" x2="177" y2="901" stroke-width="2" stroke="black" />
<line x1="177" y1="901" x2="178" y2="950" stroke-width="2" stroke="black" />
<line x1="166" y1="815" x2="217" y2="871" stroke-width="2" stroke="black" />
<line x1="217" y1="871" x2="228" y2="822" stroke-width="2" stroke="black" />
<line x1="228" y1="822" x2="166" y2="815" stroke-width="2" stroke="black" />
<line x1="228" y1="822" x2="186" y2="769" stroke-width="2" stroke="black" />
<line x1="186" y1="769" x2="166" y2="815" stroke-width="2" stroke="black" />
<line x1="166" y1="815" x2="228" y2="822" stroke-width="2" stroke="black" />
<line x1="311" y1="617" x2="245" y2="630" stroke-width="2" stroke="black" />
<line x1="245" y1="630" x2="291" y2="669" stroke-width="2" stroke="black" />
<line x1="291" y1="669" x2="311" y2="617" stroke-width="2" stroke="black" />
<line x1="681" y1="789" x2="717" y2="827" stroke-width="2" stroke="black" />
<line x1="717" y1="827" x2="748" y2="783" stroke-width="2" stroke="black" />
<line x1="748" y1="783" x2="681" y2="789" stroke-width="2" stroke="black" />
<line x1="708" y1="878" x2="770" y2="832" stroke-width="2" stroke="black" />
<line x1="770" y1="832" x2="717" y2="827" stroke-width="2" stroke="black" />
<line x1="717" y1="827" x2="708" y2="878" stroke-width="2" stroke="black" />
<line x1="285" y1="537" x2="330" y2="572" stroke-width="2" stroke="black" />
<line x1="330" y1="572" x2="348" y2="527" stroke-width="2" stroke="black" />
<line x1="348" y1="527" x2="285" y2="537" stroke-width="2" stroke="black" />
<line x1="545" y1="669" x2="630" y2="669" stroke-width="2" stroke="black" />
<line x1="630" y1="669" x2="611" y2="617" stroke-width="2" stroke="black" />
<line x1="611" y1="617" x2="545" y2="669" stroke-width="2" stroke="black" />
<line x1="275" y1="707" x2="291" y2="669" stroke-width="2" stroke="black" />
<line x1="291" y1="669" x2="225" y2="676" stroke-width="2" stroke="black" />
<line x1="225" y1="676" x2="275" y2="707" stroke-width="2" stroke="black" />
<line x1="142" y1="856" x2="217" y2="871" stroke-width="2" stroke="black" />
<line x1="217" y1="871" x2="166" y2="815" stroke-width="2" stroke="black" />
<line x1="166" y1="815" x2="142" y2="856" stroke-width="2" stroke="black" />
<line x1="816" y1="850" x2="770" y2="832" stroke-width="2" stroke="black" />
<line x1="770" y1="832" x2="810" y2="899" stroke-width="2" stroke="black" />
<line x1="810" y1="899" x2="816" y2="850" stroke-width="2" stroke="black" />
<line x1="79" y1="922" x2="50" y2="950" stroke-width="2" stroke="black" />
<line x1="50" y1="950" x2="114" y2="950" stroke-width="2" stroke="black" />
<line x1="114" y1="950" x2="79" y2="922" stroke-width="2" stroke="black" />
<line x1="364" y1="351" x2="404" y2="393" stroke-width="2" stroke="black" />
<line x1="404" y1="393" x2="423" y2="348" stroke-width="2" stroke="black" />
<line x1="423" y1="348" x2="364" y2="351" stroke-width="2" stroke="black" />
<line x1="660" y1="950" x2="618" y2="926" stroke-width="2" stroke="black" />
<line x1="618" y1="926" x2="618" y2="950" stroke-width="2" stroke="black" />
<line x1="618" y1="950" x2="660" y2="950" stroke-width="2" stroke="black" />
<line x1="867" y1="950" x2="950" y2="950" stroke-width="2" stroke="black" />
<line x1="950" y1="950" x2="911" y2="920" stroke-width="2" stroke="black" />
<line x1="911" y1="920" x2="867" y2="950" stroke-width="2" stroke="black" />
<line x1="324" y1="444" x2="367" y2="482" stroke-width="2" stroke="black" />
<line x1="367" y1="482" x2="386" y2="437" stroke-width="2" stroke="black" />
<line x1="386" y1="437" x2="324" y2="444" stroke-width="2" stroke="black" />
<line x1="498" y1="348" x2="536" y2="297" stroke-width="2" stroke="black" />
<line x1="536" y1="297" x2="507" y2="259" stroke-width="2" stroke="black" />
<line x1="507" y1="259" x2="498" y2="348" stroke-width="2" stroke="black" />
<line x1="950" y1="950" x2="950" y2="926" stroke-width="2" stroke="black" />
<line x1="950" y1="926" x2="911" y2="920" stroke-width="2" stroke="black" />
<line x1="911" y1="920" x2="950" y2="950" stroke-width="2" stroke="black" />
<line x1="684" y1="577" x2="680" y2="621" stroke-width="2" stroke="black" />
<line x1="680" y1="621" x2="728" y2="572" stroke-width="2" stroke="black" />
<line x1="728" y1="572" x2="684" y2="577" stroke-width="2" stroke="black" />
<line x1="867" y1="950" x2="884" y2="904" stroke-width="2" stroke="black" />
<line x1="884" y1="904" x2="810" y2="899" stroke-width="2" stroke="black" />
<line x1="810" y1="899" x2="867" y2="950" stroke-width="2" stroke="black" />
<line x1="682" y1="919" x2="701" y2="950" stroke-width="2" stroke="black" />
<line x1="701" y1="950" x2="700" y2="906" stroke-width="2" stroke="black" />
<line x1="700" y1="906" x2="682" y2="919" stroke-width="2" stroke="black" />
<line x1="884" y1="904" x2="867" y2="950" stroke-width="2" stroke="black" />
<line x1="867" y1="950" x2="911" y2="920" stroke-width="2" stroke="black" />
<line x1="911" y1="920" x2="884" y2="904" stroke-width="2" stroke="black" />
<line x1="861" y1="871" x2="810" y2="899" stroke-width="2" stroke="black" />
<line x1="810" y1="899" x2="884" y2="904" stroke-width="2" stroke="black" />
<line x1="884" y1="904" x2="861" y2="871" stroke-width="2" stroke="black" />
<line x1="656" y1="729" x2="669" y2="687" stroke-width="2" stroke="black" />
<line x1="669" y1="687" x2="630" y2="669" stroke-width="2" stroke="black" />
<line x1="630" y1="669" x2="656" y2="729" stroke-width="2" stroke="black" />
<line x1="784" y1="950" x2="753" y2="907" stroke-width="2" stroke="black" />
<line x1="753" y1="907" x2="701" y2="950" stroke-width="2" stroke="black" />
<line x1="701" y1="950" x2="784" y2="950" stroke-width="2" stroke="black" />
<line x1="460" y1="258" x2="495" y2="204" stroke-width="2" stroke="black" />
<line x1="495" y1="204" x2="423" y2="212" stroke-width="2" stroke="black" />
<line x1="423" y1="212" x2="460" y2="258" stroke-width="2" stroke="black" />
<line x1="386" y1="617" x2="311" y2="617" stroke-width="2" stroke="black" />
<line x1="311" y1="617" x2="376" y2="669" stroke-width="2" stroke="black" />
<line x1="376" y1="669" x2="386" y2="617" stroke-width="2" stroke="black" />
<line x1="867" y1="950" x2="810" y2="899" stroke-width="2" stroke="black" />
<line x1="810" y1="899" x2="784" y2="950" stroke-width="2" stroke="black" />
<line x1="784" y1="950" x2="867" y2="950" stroke-width="2" stroke="black" />
<line x1="460" y1="258" x2="423" y2="212" stroke-width="2" stroke="black" />
<line x1="423" y1="212" x2="403" y2="259" stroke-width="2" stroke="black" />
<line x1="403" y1="259" x2="460" y2="258" stroke-width="2" stroke="black" />
<line x1="604" y1="495" x2="554" y2="482" stroke-width="2" stroke="black" />
<line x1="554" y1="482" x2="573" y2="527" stroke-width="2" stroke="black" />
<line x1="573" y1="527" x2="604" y2="495" stroke-width="2" stroke="black" />
<line x1="611" y1="617" x2="630" y2="669" stroke-width="2" stroke="black" />
<line x1="630" y1="669" x2="680" y2="621" stroke-width="2" stroke="black" />
<line x1="680" y1="621" x2="611" y2="617" stroke-width="2" stroke="black" />
<line x1="700" y1="906" x2="701" y2="950" stroke-width="2" stroke="black" />
<line x1="701" y1="950" x2="753" y2="907" stroke-width="2" stroke="black" />
<line x1="753" y1="907" x2="700" y2="906" stroke-width="2" stroke="black" />
<line x1="753" y1="907" x2="708" y2="878" stroke-width="2" stroke="black" />
<line x1="708" y1="878" x2="700" y2="906" stroke-width="2" stroke="black" />
<line x1="700" y1="906" x2="753" y2="907" stroke-width="2" stroke="black" />
<line x1="770" y1="832" x2="708" y2="878" stroke-width="2" stroke="black" />
<line x1="708" y1="878" x2="753" y2="907" stroke-width="2" stroke="black" />
<line x1="753" y1="907" x2="770" y2="832" stroke-width="2" stroke="black" />
<line x1="861" y1="871" x2="816" y2="850" stroke-width="2" stroke="black" />
<line x1="816" y1="850" x2="810" y2="899" stroke-width="2" stroke="black" />
<line x1="810" y1="899" x2="861" y2="871" stroke-width="2" stroke="black" />
<line x1="618" y1="926" x2="660" y2="950" stroke-width="2" stroke="black" />
<line x1="660" y1="950" x2="682" y2="919" stroke-width="2" stroke="black" />
<line x1="682" y1="919" x2="618" y2="926" stroke-width="2" stroke="black" />
<line x1="495" y1="133" x2="483" y2="73" stroke-width="2" stroke="black" />
<line x1="483" y1="73" x2="443" y2="166" stroke-width="2" stroke="black" />
<line x1="443" y1="166" x2="495" y2="133" stroke-width="2" stroke="black" />
<line x1="551" y1="173" x2="507" y2="73" stroke-width="2" stroke="black" />
<line x1="507" y1="73" x2="495" y2="133" stroke-width="2" stroke="black" />
<line x1="495" y1="133" x2="551" y2="173" stroke-width="2" stroke="black" />
<line x1="114" y1="950" x2="177" y2="901" stroke-width="2" stroke="black" />
<line x1="177" y1="901" x2="118" y2="896" stroke-width="2" stroke="black" />
<line x1="118" y1="896" x2="114" y2="950" stroke-width="2" stroke="black" />
<line x1="384" y1="305" x2="423" y2="348" stroke-width="2" stroke="black" />
<line x1="423" y1="348" x2="441" y2="303" stroke-width="2" stroke="black" />
<line x1="441" y1="303" x2="384" y2="305" stroke-width="2" stroke="black" />
<line x1="784" y1="950" x2="810" y2="899" stroke-width="2" stroke="black" />
<line x1="810" y1="899" x2="753" y2="907" stroke-width="2" stroke="black" />
<line x1="753" y1="907" x2="784" y2="950" stroke-width="2" stroke="black" />
<line x1="460" y1="669" x2="536" y2="617" stroke-width="2" stroke="black" />
<line x1="536" y1="617" x2="461" y2="617" stroke-width="2" stroke="black" />
<line x1="461" y1="617" x2="460" y2="669" stroke-width="2" stroke="black" />
<line x1="536" y1="617" x2="460" y2="669" stroke-width="2" stroke="black" />
<line x1="460" y1="669" x2="545" y2="669" stroke-width="2" stroke="black" />
<line x1="545" y1="669" x2="536" y2="617" stroke-width="2" stroke="black" />
<line x1="810" y1="899" x2="770" y2="832" stroke-width="2" stroke="black" />
<line x1="770" y1="832" x2="753" y2="907" stroke-width="2" stroke="black" />
<line x1="753" y1="907" x2="810" y2="899" stroke-width="2" stroke="black" />
<line x1="730" y1="733" x2="772" y2="672" stroke-width="2" stroke="black" />
<line x1="772" y1="672" x2="711" y2="674" stroke-width="2" stroke="black" />
<line x1="711" y1="674" x2="730" y2="733" stroke-width="2" stroke="black" />
<line x1="728" y1="572" x2="680" y2="621" stroke-width="2" stroke="black" />
<line x1="680" y1="621" x2="750" y2="622" stroke-width="2" stroke="black" />
<line x1="750" y1="622" x2="728" y2="572" stroke-width="2" stroke="black" />
<line x1="794" y1="722" x2="772" y2="672" stroke-width="2" stroke="black" />
<line x1="772" y1="672" x2="730" y2="733" stroke-width="2" stroke="black" />
<line x1="730" y1="733" x2="794" y2="722" stroke-width="2" stroke="black" />
<line x1="681" y1="789" x2="730" y2="733" stroke-width="2" stroke="black" />
<line x1="730" y1="733" x2="656" y2="729" stroke-width="2" stroke="black" />
<line x1="656" y1="729" x2="681" y2="789" stroke-width="2" stroke="black" />
<line x1="681" y1="789" x2="708" y2="878" stroke-width="2" stroke="black" />
<line x1="708" y1="878" x2="717" y2="827" stroke-width="2" stroke="black" />
<line x1="717" y1="827" x2="681" y2="789" stroke-width="2" stroke="black" />
<line x1="348" y1="527" x2="304" y2="490" stroke-width="2" stroke="black" />
<line x1="304" y1="490" x2="285" y2="537" stroke-width="2" stroke="black" />
<line x1="285" y1="537" x2="348" y2="527" stroke-width="2" stroke="black" />
<line x1="680" y1="621" x2="684" y2="577" stroke-width="2" stroke="black" />
<line x1="684" y1="577" x2="611" y2="617" stroke-width="2" stroke="black" />
<line x1="611" y1="617" x2="680" y2="621" stroke-width="2" stroke="black" />
<line x1="386" y1="437" x2="344" y2="398" stroke-width="2" stroke="black" />
<line x1="344" y1="398" x2="324" y2="444" stroke-width="2" stroke="black" />
<line x1="324" y1="444" x2="386" y2="437" stroke-width="2" stroke="black" />
<line x1="205" y1="722" x2="259" y2="745" stroke-width="2" stroke="black" />
<line x1="259" y1="745" x2="275" y2="707" stroke-width="2" stroke="black" />
<line x1="275" y1="707" x2="205" y2="722" stroke-width="2" stroke="black" />
<line x1="311" y1="617" x2="265" y2="583" stroke-width="2" stroke="black" />
<line x1="265" y1="583" x2="245" y2="630" stroke-width="2" stroke="black" />
<line x1="245" y1="630" x2="311" y2="617" stroke-width="2" stroke="black" />
<line x1="507" y1="73" x2="483" y2="73" stroke-width="2" stroke="black" />
<line x1="483" y1="73" x2="495" y2="133" stroke-width="2" stroke="black" />
<line x1="495" y1="133" x2="507" y2="73" stroke-width="2" stroke="black" />
<line x1="711" y1="674" x2="669" y2="687" stroke-width="2" stroke="black" />
<line x1="669" y1="687" x2="730" y2="733" stroke-width="2" stroke="black" />
<line x1="730" y1="733" x2="711" y2="674" stroke-width="2" stroke="black" />
<line x1="217" y1="871" x2="142" y2="856" stroke-width="2" stroke="black" />
<line x1="142" y1="856" x2="177" y2="901" stroke-width="2" stroke="black" />
<line x1="177" y1="901" x2="217" y2="871" stroke-width="2" stroke="black" />
<line x1="794" y1="722" x2="748" y2="783" stroke-width="2" stroke="black" />
<line x1="748" y1="783" x2="816" y2="772" stroke-width="2" stroke="black" />
<line x1="816" y1="772" x2="794" y2="722" stroke-width="2" stroke="black" />
<line x1="423" y1="348" x2="384" y2="305" stroke-width="2" stroke="black" />
<line x1="384" y1="305" x2="364" y2="351" stroke-width="2" stroke="black" />
<line x1="364" y1="351" x2="423" y2="348" stroke-width="2" stroke="black" />
<line x1="495" y1="204" x2="495" y2="133" stroke-width="2" stroke="black" />
<line x1="495" y1="133" x2="443" y2="166" stroke-width="2" stroke="black" />
<line x1="443" y1="166" x2="495" y2="204" stroke-width="2" stroke="black" />
<line x1="229" y1="778" x2="186" y2="769" stroke-width="2" stroke="black" />
<line x1="186" y1="769" x2="228" y2="822" stroke-width="2" stroke="black" />
<line x1="228" y1="822" x2="229" y2="778" stroke-width="2" stroke="black" />
<line x1="291" y1="669" x2="245" y2="630" stroke-width="2" stroke="black" />
<line x1="245" y1="630" x2="225" y2="676" stroke-width="2" stroke="black" />
<line x1="225" y1="676" x2="291" y2="669" stroke-width="2" stroke="black" />
<line x1="304" y1="490" x2="367" y2="482" stroke-width="2" stroke="black" />
<line x1="367" y1="482" x2="324" y2="444" stroke-width="2" stroke="black" />
<line x1="324" y1="444" x2="304" y2="490" stroke-width="2" stroke="black" />
<line x1="495" y1="204" x2="507" y2="259" stroke-width="2" stroke="black" />
<line x1="507" y1="259" x2="548" y2="234" stroke-width="2" stroke="black" />
<line x1="548" y1="234" x2="495" y2="204" stroke-width="2" stroke="black" />
<line x1="861" y1="871" x2="816" y2="772" stroke-width="2" stroke="black" />
<line x1="816" y1="772" x2="816" y2="850" stroke-width="2" stroke="black" />
<line x1="816" y1="850" x2="861" y2="871" stroke-width="2" stroke="black" />
<line x1="816" y1="772" x2="770" y2="832" stroke-width="2" stroke="black" />
<line x1="770" y1="832" x2="816" y2="850" stroke-width="2" stroke="black" />
<line x1="816" y1="850" x2="816" y2="772" stroke-width="2" stroke="black" />
<line x1="367" y1="482" x2="304" y2="490" stroke-width="2" stroke="black" />
<line x1="304" y1="490" x2="348" y2="527" stroke-width="2" stroke="black" />
<line x1="348" y1="527" x2="367" y2="482" stroke-width="2" stroke="black" />
<line x1="404" y1="393" x2="344" y2="398" stroke-width="2" stroke="black" />
<line x1="344" y1="398" x2="386" y2="437" stroke-width="2" stroke="black" />
<line x1="386" y1="437" x2="404" y2="393" stroke-width="2" stroke="black" />
<line x1="344" y1="398" x2="404" y2="393" stroke-width="2" stroke="black" />
<line x1="404" y1="393" x2="364" y2="351" stroke-width="2" stroke="black" />
<line x1="364" y1="351" x2="344" y2="398" stroke-width="2" stroke="black" />
<line x1="441" y1="303" x2="403" y2="259" stroke-width="2" stroke="black" />
<line x1="403" y1="259" x2="384" y2="305" stroke-width="2" stroke="black" />
<line x1="384" y1="305" x2="441" y2="303" stroke-width="2" stroke="black" />
<line x1="265" y1="583" x2="330" y2="572" stroke-width="2" stroke="black" />
<line x1="330" y1="572" x2="285" y2="537" stroke-width="2" stroke="black" />
<line x1="285" y1="537" x2="265" y2="583" stroke-width="2" stroke="black" />
<line x1="748" y1="783" x2="717" y2="827" stroke-width="2" stroke="black" />
<line x1="717" y1="827" x2="770" y2="832" stroke-width="2" stroke="black" />
<line x1="770" y1="832" x2="748" y2="783" stroke-width="2" stroke="black" />
<line x1="816" y1="772" x2="748" y2="783" stroke-width="2" stroke="black" />
<line x1="748" y1="783" x2="770" y2="832" stroke-width="2" stroke="black" />
<line x1="770" y1="832" x2="816" y2="772" stroke-width="2" stroke="black" />
<line x1="681" y1="789" x2="748" y2="783" stroke-width="2" stroke="black" />
<line x1="748" y1="783" x2="730" y2="733" stroke-width="2" stroke="black" />
<line x1="730" y1="733" x2="681" y2="789" stroke-width="2" stroke="black" />
<line x1="684" y1="577" x2="728" y2="572" stroke-width="2" stroke="black" />
<line x1="728" y1="572" x2="706" y2="522" stroke-width="2" stroke="black" />
<line x1="706" y1="522" x2="684" y2="577" stroke-width="2" stroke="black" />
<line x1="639" y1="522" x2="684" y2="577" stroke-width="2" stroke="black" />
<line x1="684" y1="577" x2="706" y2="522" stroke-width="2" stroke="black" />
<line x1="706" y1="522" x2="639" y2="522" stroke-width="2" stroke="black" />
<line x1="750" y1="622" x2="711" y2="674" stroke-width="2" stroke="black" />
<line x1="711" y1="674" x2="772" y2="672" stroke-width="2" stroke="black" />
<line x1="772" y1="672" x2="750" y2="622" stroke-width="2" stroke="black" />
<line x1="711" y1="674" x2="750" y2="622" stroke-width="2" stroke="black" />
<line x1="750" y1="622" x2="680" y2="621" stroke-width="2" stroke="black" />
<line x1="680" y1="621" x2="711" y2="674" stroke-width="2" stroke="black" />
<line x1="680" y1="621" x2="630" y2="669" stroke-width="2" stroke="black" />
<line x1="630" y1="669" x2="669" y2="687" stroke-width="2" stroke="black" />
<line x1="669" y1="687" x2="680" y2="621" stroke-width="2" stroke="black" />
<line x1="730" y1="733" x2="669" y2="687" stroke-width="2" stroke="black" />
<line x1="669" y1="687" x2="656" y2="729" stroke-width="2" stroke="black" />
<line x1="656" y1="729" x2="730" y2="733" stroke-width="2" stroke="black" />
<line x1="680" y1="621" x2="669" y2="687" stroke-width="2" stroke="black" />
<line x1="669" y1="687" x2="711" y2="674" stroke-width="2" stroke="black" />
<line x1="711" y1="674" x2="680" y2="621" stroke-width="2" stroke="black" />
<line x1="498" y1="348" x2="507" y2="259" stroke-width="2" stroke="black" />
<line x1="507" y1="259" x2="460" y2="258" stroke-width="2" stroke="black" />
<line x1="460" y1="258" x2="498" y2="348" stroke-width="2" stroke="black" />
<line x1="748" y1="783" x2="794" y2="722" stroke-width="2" stroke="black" />
<line x1="794" y1="722" x2="730" y2="733" stroke-width="2" stroke="black" />
<line x1="730" y1="733" x2="748" y2="783" stroke-width="2" stroke="black" />
<line x1="330" y1="572" x2="265" y2="583" stroke-width="2" stroke="black" />
<line x1="265" y1="583" x2="311" y2="617" stroke-width="2" stroke="black" />
<line x1="311" y1="617" x2="330" y2="572" stroke-width="2" stroke="black" />
<line x1="573" y1="527" x2="639" y2="522" stroke-width="2" stroke="black" />
<line x1="639" y1="522" x2="604" y2="495" stroke-width="2" stroke="black" />
<line x1="604" y1="495" x2="573" y2="527" stroke-width="2" stroke="black" />
<line x1="545" y1="669" x2="611" y2="617" stroke-width="2" stroke="black" />
<line x1="611" y1="617" x2="536" y2="617" stroke-width="2" stroke="black" />
<line x1="536" y1="617" x2="545" y2="669" stroke-width="2" stroke="black" />
<line x1="460" y1="669" x2="386" y2="617" stroke-width="2" stroke="black" />
<line x1="386" y1="617" x2="376" y2="669" stroke-width="2" stroke="black" />
<line x1="376" y1="669" x2="460" y2="669" stroke-width="2" stroke="black" />
<line x1="548" y1="234" x2="536" y2="297" stroke-width="2" stroke="black" />
<line x1="536" y1="297" x2="595" y2="273" stroke-width="2" stroke="black" />
<line x1="595" y1="273" x2="548" y2="234" stroke-width="2" stroke="black" />
<line x1="495" y1="133" x2="495" y2="204" stroke-width="2" stroke="black" />
<line x1="495" y1="204" x2="551" y2="173" stroke-width="2" stroke="black" />
<line x1="551" y1="173" x2="495" y2="133" stroke-width="2" stroke="black" />
<line x1="639" y1="522" x2="610" y2="565" stroke-width="2" stroke="black" />
<line x1="610" y1="565" x2="684" y2="577" stroke-width="2" stroke="black" />
<line x1="684" y1="577" x2="639" y2="522" stroke-width="2" stroke="black" />
<line x1="495" y1="204" x2="548" y2="234" stroke-width="2" stroke="black" />
<line x1="548" y1="234" x2="551" y2="173" stroke-width="2" stroke="black" />
<line x1="551" y1="173" x2="495" y2="204" stroke-width="2" stroke="black" />
<line x1="507" y1="259" x2="495" y2="204" stroke-width="2" stroke="black" />
<line x1="495" y1="204" x2="460" y2="258" stroke-width="2" stroke="black" />
<line x1="460" y1="258" x2="507" y2="259" stroke-width="2" stroke="black" />
<line x1="595" y1="273" x2="551" y2="173" stroke-width="2" stroke="black" />
<line x1="551" y1="173" x2="548" y2="234" stroke-width="2" stroke="black" />
<line x1="548" y1="234" x2="595" y2="273" stroke-width="2" stroke="black" />
<line x1="578" y1="316" x2="639" y2="373" stroke-width="2" stroke="black" />
<line x1="639" y1="373" x2="595" y2="273" stroke-width="2" stroke="black" />
<line x1="595" y1="273" x2="578" y2="316" stroke-width="2" stroke="black" />
<line x1="639" y1="373" x2="568" y2="361" stroke-width="2" stroke="black" />
<line x1="568" y1="361" x2="596" y2="418" stroke-width="2" stroke="black" />
<line x1="596" y1="418" x2="639" y2="373" stroke-width="2" stroke="black" />
<line x1="507" y1="259" x2="536" y2="297" stroke-width="2" stroke="black" />
<line x1="536" y1="297" x2="548" y2="234" stroke-width="2" stroke="black" />
<line x1="548" y1="234" x2="507" y2="259" stroke-width="2" stroke="black" />
<line x1="536" y1="297" x2="498" y2="348" stroke-width="2" stroke="black" />
<line x1="498" y1="348" x2="568" y2="361" stroke-width="2" stroke="black" />
<line x1="568" y1="361" x2="536" y2="297" stroke-width="2" stroke="black" />
<line x1="639" y1="522" x2="706" y2="522" stroke-width="2" stroke="black" />
<line x1="706" y1="522" x2="684" y2="472" stroke-width="2" stroke="black" />
<line x1="684" y1="472" x2="639" y2="522" stroke-width="2" stroke="black" />
<line x1="639" y1="522" x2="573" y2="527" stroke-width="2" stroke="black" />
<line x1="573" y1="527" x2="610" y2="565" stroke-width="2" stroke="black" />
<line x1="610" y1="565" x2="639" y2="522" stroke-width="2" stroke="black" />
<line x1="536" y1="297" x2="578" y2="316" stroke-width="2" stroke="black" />
<line x1="578" y1="316" x2="595" y2="273" stroke-width="2" stroke="black" />
<line x1="595" y1="273" x2="536" y2="297" stroke-width="2" stroke="black" />
<line x1="573" y1="527" x2="611" y2="617" stroke-width="2" stroke="black" />
<line x1="611" y1="617" x2="610" y2="565" stroke-width="2" stroke="black" />
<line x1="610" y1="565" x2="573" y2="527" stroke-width="2" stroke="black" />
<line x1="684" y1="577" x2="610" y2="565" stroke-width="2" stroke="black" />
<line x1="610" y1="565" x2="611" y2="617" stroke-width="2" stroke="black" />
<line x1="611" y1="617" x2="684" y2="577" stroke-width="2" stroke="black" />
<line x1="626" y1="454" x2="639" y2="522" stroke-width="2" stroke="black" />
<line x1="639" y1="522" x2="684" y2="472" stroke-width="2" stroke="black" />
<line x1="684" y1="472" x2="626" y2="454" stroke-width="2" stroke="black" />
<line x1="604" y1="495" x2="626" y2="454" stroke-width="2" stroke="black" />
<line x1="626" y1="454" x2="554" y2="482" stroke-width="2" stroke="black" />
<line x1="554" y1="482" x2="604" y2="495" stroke-width="2" stroke="black" />
<line x1="596" y1="418" x2="662" y2="422" stroke-width="2" stroke="black" />
<line x1="662" y1="422" x2="639" y2="373" stroke-width="2" stroke="black" />
<line x1="639" y1="373" x2="596" y2="418" stroke-width="2" stroke="black" />
<line x1="535" y1="437" x2="596" y2="418" stroke-width="2" stroke="black" />
<line x1="596" y1="418" x2="517" y2="393" stroke-width="2" stroke="black" />
<line x1="517" y1="393" x2="535" y2="437" stroke-width="2" stroke="black" />
<line x1="568" y1="361" x2="517" y2="393" stroke-width="2" stroke="black" />
<line x1="517" y1="393" x2="596" y2="418" stroke-width="2" stroke="black" />
<line x1="596" y1="418" x2="568" y2="361" stroke-width="2" stroke="black" />
<line x1="536" y1="297" x2="568" y2="361" stroke-width="2" stroke="black" />
<line x1="568" y1="361" x2="578" y2="316" stroke-width="2" stroke="black" />
<line x1="578" y1="316" x2="536" y2="297" stroke-width="2" stroke="black" />
<line x1="639" y1="373" x2="578" y2="316" stroke-width="2" stroke="black" />
<line x1="578" y1="316" x2="568" y2="361" stroke-width="2" stroke="black" />
<line x1="568" y1="361" x2="639" y2="373" stroke-width="2" stroke="black" />
<line x1="554" y1="482" x2="596" y2="418" stroke-width="2" stroke="black" />
<line x1="596" y1="418" x2="535" y2="437" stroke-width="2" stroke="black" />
<line x1="535" y1="437" x2="554" y2="482" stroke-width="2" stroke="black" />
<line x1="568" y1="361" x2="498" y2="348" stroke-width="2" stroke="black" />
<line x1="498" y1="348" x2="517" y2="393" stroke-width="2" stroke="black" />
<line x1="517" y1="393" x2="568" y2="361" stroke-width="2" stroke="black" />
<line x1="626" y1="454" x2="684" y2="472" stroke-width="2" stroke="black" />
<line x1="684" y1="472" x2="662" y2="422" stroke-width="2" stroke="black" />
<line x1="662" y1="422" x2="626" y2="454" stroke-width="2" stroke="black" />
<line x1="554" y1="482" x2="626" y2="454" stroke-width="2" stroke="black" />
<line x1="626" y1="454" x2="596" y2="418" stroke-width="2" stroke="black" />
<line x1="596" y1="418" x2="554" y2="482" stroke-width="2" stroke="black" />
<line x1="626" y1="454" x2="662" y2="422" stroke-width="2" stroke="black" />
<line x1="662" y1="422" x2="596" y2="418" stroke-width="2" stroke="black" />
<line x1="596" y1="418" x2="626" y2="454" stroke-width="2" stroke="black" />
<line x1="626" y1="454" x2="604" y2="495" stroke-width="2" stroke="black" />
<line x1="604" y1="495" x2="639" y2="522" stroke-width="2" stroke="black" />
<line x1="639" y1="522" x2="626" y2="454" stroke-width="2" stroke="black" />
<line x1="229" y1="778" x2="205" y2="722" stroke-width="2" stroke="black" />
<line x1="205" y1="722" x2="186" y2="769" stroke-width="2" stroke="black" />
<line x1="186" y1="769" x2="229" y2="778" stroke-width="2" stroke="black" />
<line x1="228" y1="822" x2="259" y2="745" stroke-width="2" stroke="black" />
<line x1="259" y1="745" x2="229" y2="778" stroke-width="2" stroke="black" />
<line x1="229" y1="778" x2="228" y2="822" stroke-width="2" stroke="black" />
<line x1="205" y1="722" x2="275" y2="707" stroke-width="2" stroke="black" />
<line x1="275" y1="707" x2="225" y2="676" stroke-width="2" stroke="black" />
<line x1="225" y1="676" x2="205" y2="722" stroke-width="2" stroke="black" />
<line x1="205" y1="722" x2="229" y2="778" stroke-width="2" stroke="black" />
<line x1="229" y1="778" x2="259" y2="745" stroke-width="2" stroke="black" />
<line x1="259" y1="745" x2="205" y2="722" stroke-width="2" stroke="black" />
</svg>
