<svg width="1000" height="1000">
  <rect fill="white" height="1000" width="1000" x="0" y="0" />
  <polygon fill="none" points="217,647 269,142 537,755" stroke="black" stroke-weight="1" />
  <polygon fill="none" points="783,696 537,755 855,560" stroke="black" stroke-weight="1" />
  <polygon fill="none" points="833,362 537,755 269,142" stroke="black" stroke-weight="1" />
  <polygon fill="none" points="833,362 269,142 718,143" stroke="black" stroke-weight="1" />
  <polygon fill="none" points="833,362 855,560 537,755" stroke="black" stroke-weight="1" />
  <polygon fill="none" points="105,57 718,143 269,142" stroke="black" stroke-weight="1" />
  <polygon fill="none" points="122,642 217,647 537,755" stroke="black" stroke-weight="1" />
  <polygon fill="none" points="122,642 105,57 269,142" stroke="black" stroke-weight="1" />
  <polygon fill="none" points="122,642 269,142 217,647" stroke="black" stroke-weight="1" />
  <polygon fill="none" points="912,435 833,362 718,143" stroke="black" stroke-weight="1" />
  <polygon fill="none" points="912,435 855,560 833,362" stroke="black" stroke-weight="1" />
</svg>